<svg width="274" height="170" viewBox="0 0 274 170" fill="none" xmlns="http://www.w3.org/2000/svg">
<path d="M50.4004 109V54.9958H88.2034V63.4822H59.2725V78.9119H82.0314V87.3983H59.2725V109H50.4004ZM95.1528 109V54.9958H104.025V100.514H131.413V109H95.1528ZM136.816 109V54.9958H175.776V63.4822H145.688V77.369H169.99V85.8553H145.688V100.514H175.776V109H136.816Z" fill="black"/>
<path d="M206.434 91.3483L216.194 105.491C216.404 105.795 216.75 105.977 217.12 105.977H227.022C227.894 105.977 228.432 105.023 227.986 104.273C218.772 88.7854 217.257 86.2829 212.669 86.2829C208.396 86.2829 198.835 102.221 196.959 105.421C196.755 105.769 196.387 105.977 195.984 105.977H185.922C185.034 105.977 184.496 104.995 184.975 104.246L199.514 81.5175C199.75 81.1482 199.751 80.6754 199.515 80.306L185.586 58.5024C185.104 57.7475 185.653 56.761 186.549 56.7782C189.796 56.8405 195.777 56.9819 196.636 57.1896C197.823 57.4767 208.215 76.436 213.56 75.9884C218.673 75.5602 220.38 70.8282 227.936 58.4695C228.396 57.7172 227.86 56.742 226.978 56.742H217.167C216.772 56.742 216.405 56.9499 216.202 57.2895L213.133 62.4229L210.609 66.2102L207.933 70.2972" stroke="#0012B4" stroke-width="6.01761"/>
</svg>
