<?xml version="1.0" encoding="utf-8"?>
<!-- Generator: Adobe Illustrator 25.0.0, SVG Export Plug-In . SVG Version: 6.00 Build 0)  -->
<svg version="1.1" id="Layer_1" xmlns="http://www.w3.org/2000/svg" xmlns:xlink="http://www.w3.org/1999/xlink" x="0px" y="0px"
	 viewBox="0 0 217.14 217.6" style="enable-background:new 0 0 217.14 217.6;" xml:space="preserve">
<style type="text/css">
	.st0{fill:#231F20;}
	.st1{fill:#F1F2F2;}
	.st2{opacity:0.3;fill:#231F20;}
	.st3{fill:#CCC7C6;}
	.st4{fill:#FEFEFE;}
	.st5{fill:#FFFFFF;}
	.st6{fill:#00DBFF;}
	.st7{fill:#B76C00;}
	.st8{fill:#0B0808;}
</style>
<g>
	<g>
		<path class="st0" d="M160.84,179.03c-4.11,0-7.71-1.48-10.14-4.15c-0.51-0.56-0.96-1.18-1.35-1.85c-3.48-2.72-6.44-6.21-9.31-9.59
			c-0.76-0.9-1.52-1.79-2.26-2.63c-2.59-2.94-5.48-5.69-8.27-8.35c-1.19-1.14-2.41-2.3-3.62-3.48c-1.16,0.08-2.34,0.13-3.54,0.13
			c-8.45,0-16.8-2.04-25.33-4.31c-0.12-0.03-0.23-0.06-0.35-0.09c-3.78,4.41-9.26,7.16-15.92,7.97c-1.13,0.14-2.16,0.25-3.11,0.36
			c-3.96,0.44-6.35,0.71-9.94,1.94c-1.87,0.64-10.16,4.92-12.79,6.59c-0.12,0.38-0.26,1.07-0.33,1.39
			c-0.28,1.31-0.67,3.11-1.66,4.81c-2.13,3.64-6.56,6.17-10.77,6.17c-6.03,0-8.84-4.81-9.42-8.93c-0.34-2.39,0.08-5.15,1.26-8.35
			c-1.23,0.76-2.36,1.46-3.22,2c-1.23,0.77-2.29,1.43-3.04,1.88c-2.5,7.42-8.71,12.74-14.97,12.74c-0.57,0-1.13-0.04-1.68-0.13
			c-3.11-0.48-5.67-2.19-7.43-4.95c-2.29-3.6-2.79-8.71-1.34-13.67c1.37-4.7,4.4-8.92,8.12-11.33c1.43-1.44,2.84-2.85,4.24-4.25
			c7.07-7.07,13.75-13.75,20.01-21.42c0.7-0.85,1.35-1.68,1.99-2.48l0.08-0.1c1.08-1.36,2.11-2.66,3.17-3.89l0.02-0.17l0.12,0
			c0.05-0.05,0.09-0.11,0.14-0.16l-0.23-0.03c0.07-0.47,0.14-0.95,0.22-1.39c0.65-3.55,1.88-7.18,3.58-10.55
			c-1.25-1.52-2.45-3.15-3.58-4.84c-1.06-1.59-2.04-3.22-2.91-4.82c-1.49-2.76-2.66-5.42-3.48-7.92L33.75,81
			c-0.05-0.15-0.11-0.31-0.15-0.46c-1.49-4.85-0.35-9.02,2.99-10.87c0.99-0.55,2.05-0.83,3.17-0.83c2.59,0,5.02,1.46,7.23,4.34
			c0.21,0.28,0.42,0.55,0.62,0.83l0.29,0.39c1.17,1.57,2.33,3.19,3.45,4.75l2.32,3.23c0.25,0.35,0.51,0.71,0.76,1.05
			c0.9,1.2,1.66,1.76,2.87,2.5c2.96-0.63,7.26-0.92,13.42-0.92c1.47,0,3.03,0.02,4.93,0.05l0.61,0.01c3.15,0.06,5.53,0.19,6.49,0.3
			c0.33,0.04,0.64,0.06,0.94,0.08c0.37,0.02,0.73,0.04,1.08,0.04c1.8,0,3.15-0.3,5.19-0.76l0.67-0.15c0.4-0.09,0.81-0.18,1.26-0.27
			l0.12-0.02c0.57-0.12,1.1-0.22,1.68-0.32c0.49-0.09,0.99-0.21,1.53-0.37c1.57-0.46,3.23-1.19,4.84-1.89l0.47-0.21
			c0.35-0.15,0.7-0.3,1.07-0.46l0.74-0.31c1.91-0.79,3.89-1.61,5.21-2.55c0.14-1.9,0.75-4.07,1.76-6.23
			c-1.78-3.35-3.02-6.32-3.58-8.63c-0.38-1.59-0.73-3.2-1.03-4.82c-3.74,2.24-6.78,3.32-9.46,3.4l-0.15,0
			c-2.34,0-4.45-1.06-6.29-3.16c-5.6-6.38-8.83-24.11-8.04-30.12c2.06-15.79,12.59-23.8,31.3-23.8c3.33,0,6.92,0.23,10.97,0.72
			c4.04,0.48,11.61,2.67,15.44,7.82c3.92-0.69,8.09-1.04,12.41-1.04c1.86,0,3.8,0.06,5.75,0.19c0.23,0.02,0.46,0.03,0.7,0.05
			c3.18-3.34,7.68-5.68,10.94-6.77c8.6-2.89,15.7-4.29,21.7-4.29c12.15,0,20.33,5.69,24.34,16.92c1.9,5.32,2.18,22.42-1.98,29.68
			c-1.45,2.53-3.39,4.04-5.77,4.49c-0.72,0.14-1.5,0.2-2.32,0.2c-1.81,0-3.9-0.33-6.32-1c1.06,2.26,2.46,4.18,4.53,7.01l0.97,1.33
			c0.55,0.76,1.17,1.58,1.84,2.46c1.6,2.12,3.42,4.52,5.04,7.1c3.33,5.29,4.75,9.66,4.48,13.76c-0.71,10.73-7.3,21.87-15.34,25.92
			c-7.53,3.79-14.67,5.48-23.14,5.48c-3.08,0-6.11-0.21-9.72-0.52c-1.28-0.11-2.55-0.27-3.84-0.48c2.41,2.48,4.89,5.01,7.48,7.09
			c4.96,3.99,10.11,7.64,15.39,11.34c0.54,0.38,1.09,0.78,1.62,1.18c2.5-1.15,5.14-1.76,7.69-1.76c3.65,0,6.82,1.19,9.18,3.44
			c2.4,2.29,3.62,5.32,3.54,8.77c-0.1,4.38-2.36,8.82-6.2,12.17c-3.61,3.15-8.22,4.96-12.63,4.96c-3.6,0-6.87-1.22-9.2-3.45
			c-0.58-0.55-1.1-1.17-1.55-1.83c-0.08-0.04-0.15-0.08-0.23-0.12c1.46,2.2,2.09,4.81,1.82,7.63c-0.42,4.36-2.99,8.62-7.07,11.68
			C169.09,177.58,164.92,179.03,160.84,179.03z M159.16,145.03c1.21,1.75,2.55,3.64,3.91,5.47c1.21-0.24,2.4-0.37,3.58-0.37
			c0.43,0,0.85,0.02,1.27,0.05C165.05,148.52,162.06,146.76,159.16,145.03z"/>
		<path class="st1" d="M189.96,3c11.44,0,19.16,5.36,22.93,15.92c1.78,4.98,2.03,21.63-1.87,28.43c-1.22,2.13-2.82,3.4-4.75,3.76
			c-0.63,0.12-1.32,0.18-2.04,0.18c-2.34,0-5.25-0.61-8.83-1.87c1.24,3.98,2.92,6.28,5.83,10.27l0.97,1.33
			c0.56,0.77,1.18,1.59,1.85,2.48c1.59,2.1,3.39,4.48,4.97,6.99c3.15,5.01,4.5,9.1,4.25,12.86c-0.67,10.24-6.92,20.85-14.52,24.68
			c-7.31,3.68-14.24,5.32-22.47,5.32c-3.02,0-6.02-0.21-9.59-0.51c-2.42-0.21-4.85-0.6-7.4-1.2c-0.05,0.23-0.11,0.45-0.16,0.68
			c0.69,0.7,1.38,1.42,2.06,2.12c2.58,2.66,5.24,5.41,8.06,7.68c5,4.02,10.17,7.69,15.47,11.4c0.65,0.46,1.31,0.95,1.96,1.43
			c0.12,0.09,0.24,0.18,0.36,0.27c2.51-1.3,5.26-2.01,7.86-2.01c3.25,0,6.07,1.05,8.15,3.03c2.08,1.99,3.15,4.63,3.08,7.65
			c-0.09,3.96-2.16,8-5.68,11.07c-3.34,2.92-7.59,4.59-11.64,4.59c-3.21,0-6.11-1.08-8.16-3.03c-0.59-0.56-1.11-1.2-1.54-1.9
			c-6.68-3.38-16.91-9.49-24.95-14.35c2.44,3.72,5.49,8.18,8.3,11.91c1.4-0.36,2.83-0.55,4.19-0.55c3.67,0,6.87,1.3,9,3.65
			c1.93,2.13,2.8,4.85,2.51,7.86c-0.38,3.94-2.74,7.82-6.48,10.63c-3.23,2.43-7.08,3.76-10.85,3.76c-3.68,0-6.88-1.3-9.02-3.66
			c-0.5-0.55-0.94-1.17-1.3-1.84c-3.45-2.64-6.43-6.15-9.32-9.56c-0.77-0.91-1.53-1.8-2.28-2.65c-2.63-2.99-5.54-5.76-8.36-8.45
			c-1.34-1.28-2.73-2.6-4.09-3.95c-1.33,0.12-2.71,0.18-4.1,0.18c-8.27,0-16.52-2.01-24.94-4.26c-0.43-0.11-0.85-0.24-1.27-0.36
			c-3.54,4.56-8.89,7.38-15.57,8.2c-1.13,0.14-2.15,0.25-3.1,0.36c-4.06,0.45-6.52,0.72-10.26,2.01c-2.08,0.71-11.14,5.4-13.46,6.97
			c-0.24,0.22-0.49,1.36-0.65,2.12c-0.27,1.28-0.62,2.88-1.48,4.36c-1.85,3.15-5.83,5.43-9.47,5.43c-5.06,0-7.42-3.94-7.94-7.64
			c-0.54-3.84,1.22-8.26,3.11-11.91c-2.57,1.52-5.49,3.34-7.34,4.5c-1.42,0.89-2.65,1.66-3.4,2.1c-0.03,0.02-0.06,0.04-0.1,0.06
			c-2.18,7.11-7.91,12.24-13.71,12.24c-0.49,0-0.98-0.04-1.45-0.11c-2.67-0.41-4.88-1.89-6.39-4.27c-2.06-3.24-2.49-7.89-1.16-12.44
			c1.3-4.44,4.14-8.37,7.63-10.58c1.47-1.48,2.92-2.93,4.35-4.36c7.1-7.1,13.81-13.8,20.11-21.53c0.73-0.89,1.41-1.76,2.08-2.59
			c1.17-1.48,2.29-2.88,3.43-4.19c0.02-0.14,0.03-0.28,0.05-0.42l0.02-0.17l0.01-0.09l0.01-0.1c0.06-0.45,0.13-0.9,0.21-1.32
			c0.68-3.72,2.05-7.58,3.9-11.03c-1.44-1.69-2.83-3.53-4.12-5.48c-1.03-1.55-1.99-3.14-2.84-4.7c-1.45-2.68-2.59-5.27-3.37-7.67
			l-0.06-0.19c-0.05-0.14-0.1-0.28-0.14-0.41c-1.27-4.13-0.4-7.63,2.28-9.12c0.76-0.42,1.58-0.64,2.44-0.64
			c2.1,0,4.13,1.26,6.04,3.75c0.21,0.27,0.41,0.54,0.6,0.81l0.29,0.39c1.18,1.58,2.34,3.21,3.47,4.78c0.5,0.7,1,1.4,1.5,2.1
			l0.16,0.22l0.17,0.23l0.46,0.64c0.26,0.36,0.52,0.72,0.78,1.07c1.2,1.61,2.26,2.27,3.82,3.2c2.85-0.69,7.24-1.02,13.67-1.02
			c1.46,0,3.02,0.02,4.9,0.05l0.61,0.01c3.1,0.06,5.43,0.19,6.36,0.29c0.35,0.04,0.68,0.06,1,0.08c0.4,0.03,0.8,0.04,1.17,0.04
			c1.96,0,3.45-0.33,5.52-0.79l0.67-0.15c0.39-0.09,0.8-0.17,1.24-0.26l0.11-0.02l0.07-0.01c0.49-0.1,1.01-0.2,1.58-0.3
			c0.54-0.09,1.09-0.23,1.69-0.4c1.66-0.49,3.37-1.23,5.02-1.96l0.47-0.21c0.34-0.15,0.69-0.3,1.05-0.45l0.74-0.31
			c2.09-0.86,4.25-1.76,5.71-2.87c0.13-0.1,0.26-0.2,0.38-0.32c0-0.09,0-0.18,0.01-0.27c0.07-2,0.78-4.41,1.97-6.74
			c-1.9-3.47-3.24-6.62-3.81-8.95c-0.55-2.29-1.02-4.61-1.39-6.93c-4.38,2.89-7.79,4.28-10.6,4.36l-0.13,0
			c-1.87,0-3.6-0.89-5.15-2.65c-5.26-5.99-8.42-23.3-7.68-28.94c1.95-14.93,11.98-22.5,29.81-22.5c3.27,0,6.8,0.23,10.79,0.71
			c3.93,0.47,11.66,2.73,14.94,7.98c4.1-0.79,8.51-1.2,13.1-1.2c1.83,0,3.74,0.06,5.66,0.19c0.47,0.03,0.94,0.07,1.41,0.1
			c2.98-3.4,7.58-5.82,10.8-6.9C177.19,4.38,184.13,3,189.96,3 M189.96,0c-6.17,0-13.42,1.43-22.17,4.37
			c-3.27,1.1-7.72,3.38-11.05,6.65c0,0-0.01,0-0.01,0c-1.98-0.13-3.95-0.2-5.85-0.2c-4.09,0-8.05,0.31-11.79,0.92
			c-4.28-5.03-11.79-7.19-15.89-7.68c-4.1-0.49-7.75-0.73-11.14-0.73c-13.46,0-30.07,4.36-32.78,25.11
			c-0.83,6.4,2.45,24.53,8.4,31.31c2.67,3.04,5.5,3.67,7.4,3.67l0.17,0c2.51-0.07,5.23-0.9,8.39-2.58c0.2,0.95,0.41,1.91,0.64,2.85
			c0.55,2.28,1.71,5.14,3.37,8.33c-0.78,1.81-1.3,3.63-1.52,5.31c-1.17,0.7-2.79,1.37-4.36,2.02l-0.75,0.31
			c-0.38,0.16-0.74,0.31-1.1,0.47l-0.47,0.21c-1.57,0.69-3.19,1.4-4.67,1.83c-0.49,0.15-0.94,0.25-1.37,0.33
			c-0.6,0.11-1.14,0.21-1.66,0.32l-0.06,0.01l-0.11,0.02c-0.47,0.1-0.88,0.19-1.29,0.28l-0.67,0.15c-1.95,0.43-3.24,0.72-4.87,0.72
			c-0.31,0-0.65-0.01-0.99-0.03c-0.28-0.02-0.56-0.04-0.87-0.07c-1.21-0.13-3.81-0.25-6.62-0.31l-0.61-0.01
			c-1.9-0.03-3.48-0.05-4.96-0.05c-5.86,0-10.09,0.27-13.13,0.83c-0.81-0.52-1.34-0.97-1.96-1.81c-0.25-0.33-0.49-0.67-0.73-1.01
			l-0.48-0.67l-0.17-0.23l-0.16-0.22c-0.51-0.7-1-1.4-1.5-2.09c-1.13-1.58-2.3-3.22-3.5-4.83l-0.28-0.38
			c-0.21-0.28-0.42-0.57-0.63-0.85c-2.51-3.27-5.35-4.93-8.42-4.93c-1.37,0-2.69,0.34-3.9,1.01c-3.93,2.19-5.38,7.14-3.69,12.62
			c0.05,0.17,0.11,0.35,0.18,0.53l0.06,0.17c0.83,2.54,2.04,5.29,3.57,8.13c0.89,1.64,1.89,3.31,2.98,4.94
			c0.97,1.46,2,2.87,3.06,4.21c-1.54,3.24-2.67,6.69-3.29,10.09c-0.08,0.43-0.15,0.87-0.22,1.36c-0.98,1.15-1.93,2.35-2.92,3.6
			c-0.66,0.83-1.34,1.68-2.06,2.57c-6.2,7.61-12.86,14.26-19.9,21.3c-1.36,1.36-2.74,2.74-4.13,4.14c-3.95,2.62-7.15,7.11-8.6,12.08
			c-1.57,5.37-1,10.94,1.51,14.89c1.99,3.13,4.92,5.08,8.46,5.63c0.63,0.1,1.27,0.15,1.91,0.15c6.85,0,13.38-5.39,16.21-13.24
			c0.69-0.42,1.55-0.96,2.49-1.55c-0.38,1.89-0.45,3.62-0.23,5.22c0.87,6.21,5.16,10.22,10.91,10.22c4.71,0,9.67-2.84,12.06-6.91
			c1.11-1.9,1.53-3.84,1.83-5.25c0.04-0.17,0.1-0.47,0.17-0.75c3.04-1.83,10.45-5.61,11.98-6.13c3.44-1.18,5.64-1.42,9.63-1.87
			c0.96-0.11,1.99-0.22,3.13-0.36c6.68-0.82,12.25-3.49,16.24-7.77c8.44,2.24,16.72,4.21,25.17,4.21c1,0,1.99-0.03,2.97-0.09
			c1.06,1.03,2.12,2.04,3.16,3.03c2.77,2.64,5.64,5.37,8.18,8.26c0.73,0.83,1.47,1.71,2.23,2.59c2.87,3.39,5.83,6.87,9.33,9.65
			c0.41,0.66,0.87,1.28,1.38,1.84c2.72,3,6.71,4.65,11.25,4.65c4.41,0,8.9-1.55,12.65-4.37c4.41-3.32,7.21-7.96,7.66-12.74
			c0.09-0.97,0.09-1.91,0-2.82c2.23,1.27,4.86,1.95,7.66,1.95c4.77,0,9.74-1.94,13.62-5.33c4.16-3.63,6.6-8.47,6.71-13.27
			c0.09-3.89-1.3-7.31-4.01-9.89c-2.65-2.52-6.18-3.86-10.22-3.86c-2.49,0-5.05,0.53-7.5,1.54c-0.32-0.23-0.64-0.46-0.96-0.69
			c-5.25-3.69-10.38-7.32-15.31-11.28c-1.47-1.18-2.91-2.52-4.33-3.91c3.49,0.3,6.46,0.49,9.48,0.49c8.72,0,16.07-1.74,23.82-5.64
			c8.62-4.34,15.42-15.76,16.17-27.16c0.29-4.43-1.2-9.09-4.71-14.66c-1.65-2.63-3.49-5.06-5.12-7.2c-0.67-0.88-1.27-1.68-1.82-2.43
			l-0.97-1.33c-1.13-1.54-2.03-2.78-2.78-3.93c1.2,0.2,2.32,0.3,3.36,0.3c0.91,0,1.79-0.08,2.6-0.23c1.94-0.37,4.7-1.57,6.8-5.22
			c4.43-7.72,4.12-25.24,2.09-30.93C211.54,6.19,202.63,0,189.96,0L189.96,0z"/>
	</g>
	<g>
		<g>
			<path class="st2" d="M31.12,207.96c0,5.33,30.55,9.65,72.26,9.65c41.71,0,75.53-4.32,75.53-9.65c0-5.33-33.81-9.65-75.53-9.65
				C61.67,198.3,31.12,202.62,31.12,207.96z"/>
		</g>
	</g>
	<g>
		<g>
			<g>
				<g>
					<g>
						<path class="st3" d="M131.92,122.89c-2.45-2.37-4.21-5.19-4.25-8.5c-0.1-7.69,5.43-13.07,12.76-11.16
							c11.67,3.05,18.17,14.11,27.28,21.42c5.11,4.1,10.31,7.79,15.63,11.52c1.9,1.33,3.9,3.04,5.91,4.11
							c1.41,0.75,2.82,1.01,4.32,1.24c2.79,0.43,8.13-1.95,8.22,2.66c0.15,6.97-11.13,11.75-15.88,10.23
							c-7.91-2.54-38.51-22.01-42.77-24.21C139.82,128.49,135.23,126.09,131.92,122.89z"/>
					</g>
				</g>
			</g>
			<g>
				<g>
					<g>
						<path class="st3" d="M201.31,138.6c3.66,3.49,2.54,9.89-2.51,14.29c-5.04,4.4-12.1,5.14-15.76,1.65
							c-3.66-3.49-2.54-9.89,2.5-14.29C190.59,135.85,197.65,135.11,201.31,138.6z"/>
					</g>
				</g>
			</g>
		</g>
		<g>
			<path class="st0" d="M45.98,87.11c0.9-1.27,2.14-2.41,3.56-2.99c0.11,0.15,0.22,0.3,0.33,0.45c0.42,0.58,0.84,1.18,1.27,1.76
				c2.49,3.34,4.8,3.67,7.98,6.14c1.85,1.43,5.93,6.22,6.03,9.56c0.14,4.71-4.73,3.96-6.88,3.01c-4.98-2.19-10.08-7.53-14.01-13.44
				c0-0.09,0-0.18,0.01-0.28C44.39,89.81,45.09,88.37,45.98,87.11z"/>
			<path class="st4" d="M39.09,73.81c1.65-0.91,3.45,0.77,4.64,2.32c0.29,0.38,0.58,0.78,0.87,1.16c1.68,2.25,3.3,4.55,4.94,6.83
				c-1.41,0.58-2.65,1.72-3.56,2.99c-0.89,1.25-1.59,2.69-1.72,4.23c-0.01,0.09-0.01,0.18-0.01,0.28c-0.98-1.47-1.88-2.97-2.69-4.47
				c-1.34-2.48-2.43-4.94-3.17-7.21c-0.06-0.17-0.13-0.35-0.18-0.52C37.61,77.45,37.4,74.74,39.09,73.81z"/>
		</g>
		<g>
			<path class="st3" d="M79.83,109.95c12.05-3.29,18.45,0.31,18.46,17.35c0.01,13.08-7.34,19.82-17.75,21.1
				c-5.96,0.72-8.98,0.79-13.97,2.5c-2.38,0.81-11.7,5.66-14.18,7.33c-2.11,1.42-1.55,4.91-3.03,7.44
				c-2.41,4.11-10.75,6.74-11.86-1.1c-0.65-4.61,3.22-10.99,5.27-14.52c5.9-10.2,14.54-16.32,21.1-25.52
				C69.02,117.31,71.66,112.18,79.83,109.95z"/>
		</g>
		<g>
			<g>
				<path class="st4" d="M56.25,91.76c4.18-2.68,23.46-2.02,26.33-1.71c5.02,0.54,7.25-0.58,12.2-1.45
					c2.72-0.48,5.35-1.68,7.87-2.77c2.6-1.13,5.86-2.27,8.12-3.98c1.54-1.16,2.66-2.9,4.42-3.7c1.09,1.11,0.96,2.89,1.36,4.39
					c2.38,8.97,12.72,14.37,21.01,16.41c3.94,0.97,8.01,1.4,12.06,1.42c0.75,0,8.71,0.07,8.84-0.59c-0.25,1.29-0.39,2.58-0.49,3.85
					c-0.23,3-1.05,6.87-1.86,9.92c0.21,10.16-4.55,19.92-14.97,26.35c-13.25,8.17-28.75,4.42-42.63,0.72
					c-5.98-1.6-7.31-3.88-13.57-4.11c-5.82-0.22-12.8,2.57-18.59,1.87c-10.26-1.26-17.63-7.88-21.11-18.23
					C42.19,111.06,48.51,96.73,56.25,91.76z"/>
			</g>
		</g>
		<path class="st3" d="M68.09,127.97c4.27-3.61,8.89-3.62,14.14-3.03c7.85,0.89,14.97,5.92,23.05,5.22c7.99-0.7,16.06-3,23.6-5.59
			c3.74-1.28,6.51-1.93,10.65-1.8c4.1,0.13,6.34,2.51,9.87,2.93c1.73,0.21,3.37-0.46,4.66-0.66c-2.29,5.76-6.55,10.94-12.92,14.87
			c-13.25,8.17-28.75,4.42-42.63,0.72c-5.98-1.6-7.31-3.88-13.57-4.11c-5.82-0.22-12.8,2.57-18.59,1.87
			c-0.47-0.06-0.94-0.13-1.4-0.21C64.09,134.51,64.76,130.78,68.09,127.97z"/>
		<g>
			<g>
				<path class="st5" d="M115.78,127.15c-4.48-10.86,1.77-25.23,11.9-18.97c8.89,5.5,14.34,16.98,19.89,26.87
					c2.84,5.07,15.66,24.54,19.84,26.84c1.44,0.79,4.36-0.14,4.85,2.63c1.35,7.57-10.08,9.39-13.74,8.4
					c-6.74-1.83-12.04-9.2-17.03-14.89C132.6,147.93,121.58,141.19,115.78,127.15z"/>
			</g>
			<g>
				<g>
					<g>
						<path class="st5" d="M173.75,157.49c3.4,3.75,1.81,10.05-3.55,14.07c-5.35,4.02-12.44,4.24-15.84,0.49
							c-3.39-3.75-1.81-10.05,3.54-14.07C163.26,153.96,170.35,153.74,173.75,157.49z"/>
					</g>
				</g>
			</g>
		</g>
		<g>
			<g>
				<path class="st4" d="M57.2,105.6c14.14-3.38,31.69-7.12,31.72,10.36c0.02,13.41-13.09,21.06-25.31,22.37
					c-6.99,0.75-16.09,7.53-21.94,9.28c-2.79,0.84-13.4,7.76-16.3,9.47c-2.47,1.46-3.65,3.04-5.39,5.64
					c-2.83,4.22-10.88,8.49-12.18,0.44c-0.76-4.73,2.89-13.33,5.95-16.41c8.86-8.93,17.05-16.76,24.74-26.19
					C44.52,113.16,47.61,107.89,57.2,105.6z"/>
			</g>
			<g>
				<g>
					<g>
						<path class="st5" d="M12.09,168.88c-4.71-0.73-7-6.51-5.13-12.91c1.87-6.4,7.2-10.99,11.91-10.27c4.7,0.73,7,6.5,5.13,12.9
							C22.13,165.01,16.79,169.61,12.09,168.88z"/>
					</g>
				</g>
			</g>
		</g>
		<path class="st0" d="M94.55,88.49c2.72-0.48,5.35-1.68,7.87-2.77c2.6-1.13,5.86-2.27,8.11-3.98c1.54-1.16,2.66-2.9,4.42-3.69
			c1.09,1.11,0.96,2.89,1.36,4.39c1.74,6.56,7.74,11.2,14.08,14.02c-0.05,1.05-0.12,2.11-0.19,3.17c-0.39,5.87,2.26,9.98,2.55,15.49
			c0.13,2.47-0.86,5.15-3.01,6.37c-2.01,1.14-4.61,0.77-6.63-0.36c-2.02-1.12-3.59-2.9-5.12-4.63c-7.2-8.18-10.01-9.13-20.31-12.07
			c-6.77-1.94-12.34-7.61-14.19-14.41C87.74,90.3,89.99,89.29,94.55,88.49z"/>
		<g>
			<g>
				<path class="st6" d="M117.86,68.48c-2.75,2.15-5.4,7.06-5.52,10.51c-0.12,3.28,1.06,6.81,2.38,9.59
					c2.92,6.14,8.07,10.9,13.67,14.21c8.21,4.85,17.04,9.36,27,7.01c4.97-1.17,9.45-2.71,12.64-7.38
					c8.39-12.27-1.28-21.02-9.86-27.87c-8.08-6.45-21.23-14.89-32.35-10C123.44,65.58,119.99,66.81,117.86,68.48z"/>
			</g>
		</g>
		<path class="st0" d="M55.87,91.33c2.93-1.88,13.62-1.8,20.54-1.66c0.36,1.18,0.56,2.35,0.57,3.52
			c0.07,11.2-19.11,23.06-29.18,21.14c-1.16-0.22-2.27-0.58-3.34-1.05C45.05,104.98,49.87,95.18,55.87,91.33z"/>
		<g>
			<path class="st0" d="M210.39,20.13c1.89,5.28,1.82,27.07-4.35,28.23c-9.67,1.82-37.96-16.49-40.87-18.02
				c-3.65-1.93-6.63-5.22-6.89-8.5c-0.41-5.35,6.89-9.95,11.74-11.58C188.82,3.94,204.44,3.45,210.39,20.13z"/>
			<g>
				<path class="st5" d="M154.94,99.2c-0.04-5.25,0.33-13.03,3.51-17.21c3.28-4.31,7.77-8.15,10.89-11.42
					c5.08-5.33-0.67-13.18-4.59-19.42c-5.94-9.47-16.31-15.72-23.71-24.11c-1.89-2.14-0.24-7.02-2.44-8.86
					c5.85-1.14,11.91-1.37,18.05-0.97c0.42,0.63,0.92,1.22,1.41,1.75c3.2,3.43,6.15,7.05,9.41,10.45
					c6.97,7.26,11.47,14.13,12.5,24.65c0.44,4.55,1.81,11.64,5.82,13.68c4,2.02,8.75,1.21,13.17,1.78c2.77,0.35,5.43,1.34,7.84,2.77
					c2.28,3.63,4.04,7.49,3.8,11.07c-0.59,9.01-6.1,18.79-12.88,22.2c-11.45,5.77-20.4,5.37-30.45,4.5
					c-4.3-0.37-8.41-1.31-12.31-2.65C155.34,104.8,154.96,101.87,154.94,99.2z"/>
				<path class="st7" d="M110.43,62.48c-1.23-5.09-2.01-10.32-2.27-15.53c-0.46-9.06,3.47-14.87,10.52-20.13
					c6.12-4.56,12.86-7.27,19.93-8.64c2.2,1.84,6.66,5.53,9.51,5.5c11.57-0.13,11.74,3.56,17.61,16.94
					c1.03,2.34-5.92,2.51-4.56,4.68c3.92,6.24,21.72,14.92,8.63,26.56c-4.05,3.6-6.69,8.38-9.96,12.69
					c-3.18,4.18-4.93,9.42-4.89,14.66c0.02,2.68,0.4,5.6,0.02,8.2C129.2,98.53,112.56,71.29,110.43,62.48z"/>
				<path class="st7" d="M185.79,67.74c-4.01-2.03-6.47-5.68-9.54-10.11c-1.24-1.78-3.96-6.74-4.99-9.14
					c-0.64-1.5,4.4-0.57,4.1-1.61c-1.99-6.84-12.16-15.44-16.44-18.97c-3.63-2.99,2.34-5.51-0.86-8.95
					c-0.49-0.53-0.99-1.12-1.41-1.75c0.89,0.06,1.78,0.13,2.67,0.21c10.82,1.02,20.12,3.16,27.07,12.76
					c3.48,4.81,4.44,12.17,5.79,17.85c1.57,6.64,3.81,9.3,7.91,14.95c1.9,2.62,4.55,5.86,6.71,9.31c-2.41-1.43-5.07-2.41-7.84-2.77
					C194.53,68.95,189.79,69.76,185.79,67.74z"/>
			</g>
			<path class="st0" d="M85.54,29.42c-0.77,5.88,3.69,28.38,9.92,28.21c9.77-0.28,33.59-25.5,36.11-27.74
				c3.16-2.8,5.4-6.87,4.98-10.32c-0.68-5.62-8.71-8.74-13.75-9.35C103.25,7.88,87.96,10.86,85.54,29.42z"/>
			<g>
				<g>
					<path class="st8" d="M148.53,60.06c1.21,5.59,4.73,9.56,7.86,8.87c3.13-0.68,4.69-5.77,3.48-11.35
						c-1.21-5.59-4.73-9.56-7.86-8.87C148.88,49.39,147.32,54.47,148.53,60.06z"/>
					<path class="st8" d="M182.6,56.39c1.77,5.2,5.24,8.71,7.75,7.84c2.51-0.87,3.1-5.78,1.32-10.98c-1.78-5.19-5.25-8.7-7.75-7.84
						C181.42,46.28,180.83,51.2,182.6,56.39z"/>
				</g>
				<g>
					<g>
						<path class="st8" d="M187.7,78.89c1.37-1.25,3.88-2.16,6.58-2.52l0,0c0,0,0.01,0,0.01,0c0,0,0.01,0,0.01,0l0,0
							c2.7-0.43,5.35-0.29,7.01,0.52c7.91,3.84,2.12,12.06-5.01,13.71l0,0c-0.01,0-0.01,0-0.01,0c-0.01,0-0.01,0-0.01,0l0,0
							C188.99,91.07,181.17,84.86,187.7,78.89z"/>
						<g>
							<path class="st8" d="M202.74,97.47c-0.11-0.12-0.25-0.22-0.44-0.29c-0.61-0.23-1.05,0.27-1.53,0.54
								c-0.67,0.39-1.44,0.7-2.19,0.87c-2.41,0.54-4.29-0.04-6.3-1.1l0-0.1c-0.03,0.02-0.06,0.03-0.09,0.05
								c-0.03-0.02-0.06-0.03-0.09-0.05l0,0.1c-1.96,1.16-3.81,1.83-6.24,1.41c-1.68-0.29-5.01-1.95-6-3.55
								c-0.35-0.56-1.07-0.73-1.62-0.38c-0.55,0.36-0.71,1.1-0.37,1.67c1.52,2.48,5.69,4.31,7.59,4.64
								c0.74,0.13,1.43,0.18,2.09,0.16c1.81-0.04,3.32-0.59,4.7-1.3c1.41,0.64,2.94,1.11,4.75,1.07c0.66-0.02,1.35-0.1,2.08-0.26
								c1.05-0.24,2.57-0.7,3.37-1.46C202.99,98.98,203.24,98.01,202.74,97.47z"/>
						</g>
					</g>
					<path class="st8" d="M192.02,100.11c-0.34,0.03-0.68-0.08-0.95-0.33c-0.52-0.48-0.57-1.3-0.11-1.84
						c0.05-0.06,2.32-2.82,3.47-9.08c0.13-0.71,0.8-1.17,1.48-1.04c0.69,0.13,1.14,0.82,1.02,1.53c-1.3,7.08-3.96,10.2-4.07,10.33
						C192.64,99.94,192.34,100.08,192.02,100.11z"/>
				</g>
				<path class="st5" d="M203.67,81.23c-0.38,1.31-2.56,1.83-4.86,1.17c-2.31-0.66-3.87-2.26-3.49-3.57
					c0.38-1.31,2.56-1.83,4.86-1.17C202.49,78.32,204.05,79.92,203.67,81.23z"/>
				<path class="st5" d="M189.43,52.64c-0.69,0.5-2-0.11-2.92-1.38c-0.92-1.26-1.1-2.7-0.41-3.2c0.69-0.5,2,0.11,2.92,1.38
					S190.12,52.13,189.43,52.64z"/>
				<path class="st5" d="M157.27,56.79c-0.84,0.73-2.58,0.09-3.9-1.41c-1.31-1.51-1.69-3.32-0.85-4.05c0.84-0.73,2.58-0.09,3.9,1.41
					C157.73,54.25,158.11,56.06,157.27,56.79z"/>
			</g>
		</g>
	</g>
</g>
</svg>
