<?xml version="1.0" encoding="utf-8"?>
<!-- Generator: Adobe Illustrator 25.0.0, SVG Export Plug-In . SVG Version: 6.00 Build 0)  -->
<svg version="1.1" id="Layer_1" xmlns="http://www.w3.org/2000/svg" xmlns:xlink="http://www.w3.org/1999/xlink" x="0px" y="0px"
	 viewBox="0 0 182.7 186.27" style="enable-background:new 0 0 182.7 186.27;" xml:space="preserve">
<style type="text/css">
	.st0{fill:#231F20;}
	.st1{fill:#F1F2F2;}
	.st2{fill:#C2C3CC;}
	.st3{fill:#FFFFFF;}
	.st4{fill:#E2A77F;}
	.st5{fill:#F15A29;}
	.st6{fill:#0B0808;}
	.st7{fill:#514539;}
	.st8{fill:#B76C00;}
	.st9{fill:#48250D;}
</style>
<g>
	<g>
		<path class="st0" d="M130.18,185.27c-0.3,0-0.59-0.01-0.88-0.02c-1.79-0.08-3.55-0.43-5.24-1.03c-0.28-0.1-0.55-0.2-0.82-0.31
			c-5.6-2.31-10.24-7.74-12.31-14.32c-5.67,2.2-12.63,3.36-20.19,3.36c-5.75,0-11.45-0.68-16.53-1.97
			c-2.26,5.99-6.63,10.79-11.81,12.93c-0.27,0.11-0.54,0.21-0.83,0.32c-1.68,0.6-3.44,0.94-5.23,1.03
			c-0.29,0.01-0.59,0.02-0.89,0.02c-2.31,0-4.67-0.43-7.02-1.27c-1.93-0.69-3.87-1.66-5.77-2.89c-0.84-0.54-1.67-1.13-2.47-1.74
			c-4.89-3.77-7.64-8.29-8.18-13.43c-0.46-4.36,0.81-8.92,3.66-13.21c-0.26-0.5-0.5-1-0.75-1.5c-1.04-2.19-1.6-4.63-2.14-6.99
			c-0.44-1.92-0.98-4.3-1.66-5.36c-1.43-1.55-1.81-3.58-1.02-5.45c0.63-1.48,1.94-2.57,3.49-2.93c0.11-0.16,0.23-0.32,0.37-0.47
			c0.95-1.08,2.32-1.7,3.76-1.7c0.11,0,0.21,0,0.32,0.01c1.81,0.12,3.75,0.65,5.9,1.63c-1.66-5.06-1.94-12.41-0.66-18.5
			c-1.53-4.63-3.49-9.47-5.36-14.03l-0.67-1.62c-4.47-10.86-9.09-22.07-10.43-33.46c-2.97,1.26-5.51,1.99-7.72,2.2
			c-0.68,0.07-1.36,0.1-2.01,0.1c-8.9,0-14.63-5.98-15.72-16.42c-1.52-14.62,1.95-27.46,9.79-36.15C17.67,4.83,26.74,1,37.36,1
			c3.86,0,7.92,0.51,12.09,1.53l1.27,0.31c7.41,1.78,17.49,4.19,22.7,10.74c2.07-0.41,4.2-0.79,6.34-1.12
			c1.69-0.26,3.58-0.45,5.6-0.55c2.22-0.17,4.48-0.26,6.71-0.26c7.78,0,13.51,1.05,16,1.51c0.48,0.02,0.96,0.07,1.44,0.15
			c5.27-6.34,15.18-8.72,22.47-10.47l1.28-0.31C137.42,1.51,141.49,1,145.35,1c10.62,0,19.68,3.83,26.21,11.08
			c7.84,8.7,11.31,21.54,9.79,36.15c-1.09,10.44-6.82,16.42-15.72,16.42c-0.65,0-1.33-0.03-2.01-0.1c-2.21-0.21-4.75-0.94-7.72-2.2
			c-1.34,11.39-5.96,22.6-10.43,33.45l-0.67,1.62c-1.73,4.2-3.54,8.66-5.03,13.04c0.54,3.43,0.6,7.19,0.19,11.17
			c-0.52,5.02-1.9,9.33-4.34,13.52c1.02,2.52,1.9,5.14,2.62,7.81c3.17,1.07,5.93,2.94,8.64,5.86c4.9,5.3,7.24,11.09,6.77,16.75
			c-0.44,5.21-3.28,9.98-8.22,13.79c-0.79,0.61-1.62,1.2-2.46,1.74c-1.92,1.24-3.86,2.21-5.78,2.9
			C134.85,184.85,132.48,185.27,130.18,185.27z"/>
		<path class="st1" d="M145.35,2c10.32,0,19.13,3.72,25.47,10.75c7.65,8.48,11.03,21.05,9.54,35.38
			c-1.03,9.87-6.4,15.52-14.73,15.52c-0.62,0-1.26-0.03-1.91-0.1c-2.4-0.23-5.25-1.11-8.67-2.68c-1.1,11.71-5.87,23.3-10.51,34.54
			l-0.66,1.61c-1.77,4.3-3.62,8.86-5.13,13.34c0.56,3.42,0.63,7.17,0.22,11.15c-0.52,5.02-1.94,9.35-4.45,13.54
			c1.16,2.79,2.13,5.7,2.91,8.67c3.22,0.97,6.02,2.83,8.73,5.76c4.71,5.09,6.96,10.62,6.51,15.99c-0.41,4.92-3.12,9.45-7.83,13.08
			c-0.77,0.59-1.58,1.16-2.39,1.69c-1.85,1.19-3.72,2.13-5.57,2.79c-2.25,0.8-4.5,1.21-6.69,1.21c-0.28,0-0.56-0.01-0.84-0.02
			c-1.69-0.08-3.36-0.41-4.95-0.97c-0.26-0.09-0.52-0.19-0.77-0.3c-5.7-2.35-10.24-7.99-12.04-14.74c-5.68,2.4-12.96,3.7-20.84,3.7
			c-5.99,0-12-0.76-17.16-2.17c-2.05,6.09-6.36,11.05-11.56,13.2c-0.26,0.11-0.51,0.2-0.79,0.3c-1.58,0.56-3.25,0.89-4.93,0.97
			c-0.28,0.01-0.56,0.02-0.84,0.02c-2.19,0-4.44-0.41-6.68-1.21c-1.85-0.66-3.73-1.6-5.57-2.79c-0.81-0.52-1.62-1.1-2.4-1.7
			c-4.67-3.6-7.29-7.89-7.8-12.75c-0.45-4.31,0.87-8.79,3.83-13.04c-0.35-0.66-0.68-1.32-1.01-2c-0.99-2.09-1.54-4.47-2.07-6.78
			c-0.49-2.15-1.05-4.57-1.85-5.75c-1.2-1.26-1.53-2.92-0.89-4.44c0.56-1.33,1.78-2.23,3.18-2.41c0.14-0.25,0.31-0.49,0.5-0.72
			c0.76-0.87,1.86-1.36,3.01-1.36c0.09,0,0.17,0,0.26,0.01c2.55,0.17,5.22,1.23,7.88,2.72c-0.2-0.44-0.39-0.87-0.57-1.31
			c-1.98-4.92-2.37-12.96-0.97-19.34c-1.55-4.74-3.55-9.69-5.47-14.36l-0.67-1.62c-4.63-11.24-9.41-22.83-10.5-34.54
			c-3.42,1.56-6.27,2.44-8.67,2.68c-0.65,0.06-1.29,0.1-1.91,0.1c-8.33,0-13.7-5.66-14.73-15.52c-1.49-14.33,1.89-26.9,9.54-35.38
			C18.22,5.72,27.03,2,37.36,2c3.78,0,7.77,0.5,11.85,1.5l1.28,0.31C57.95,5.6,68.14,8.04,73,14.68c2.26-0.46,4.58-0.88,6.91-1.24
			c1.66-0.26,3.51-0.44,5.5-0.54c2.22-0.17,4.46-0.26,6.66-0.26c7.63,0,13.15,1,15.89,1.51c0.65,0.03,1.3,0.11,1.96,0.25
			c4.94-6.43,14.94-8.82,22.3-10.59l1.28-0.31C137.58,2.5,141.57,2,145.35,2 M145.35,0c-3.94,0-8.08,0.52-12.33,1.56l-1.28,0.31
			c-7.26,1.74-17.08,4.1-22.64,10.38c-0.31-0.04-0.61-0.06-0.92-0.08c-2.56-0.47-8.31-1.52-16.12-1.52c-2.25,0-4.53,0.09-6.79,0.26
			c-2.04,0.1-3.95,0.29-5.68,0.56c-1.94,0.3-3.89,0.64-5.79,1.02C68.29,6.02,58.33,3.63,50.95,1.86l-1.27-0.31
			C45.44,0.52,41.29,0,37.36,0C26.45,0,17.13,3.95,10.4,11.41C2.37,20.32-1.2,33.44,0.36,48.34c1.13,10.84,7.38,17.32,16.72,17.32
			c0.68,0,1.39-0.04,2.11-0.1c2-0.19,4.25-0.78,6.8-1.78c1.54,11.07,6,21.91,10.33,32.42l0.67,1.62c1.83,4.46,3.74,9.18,5.26,13.71
			c-1.09,5.43-0.99,11.8,0.18,16.75c-1.53-0.54-2.96-0.85-4.32-0.94c-0.13-0.01-0.26-0.01-0.39-0.01c-1.73,0-3.37,0.74-4.51,2.04
			c-0.07,0.08-0.14,0.17-0.21,0.26c-1.7,0.51-3.11,1.75-3.81,3.41c-0.92,2.18-0.48,4.63,1.14,6.44c0.57,0.94,1.1,3.26,1.49,4.97
			c0.55,2.41,1.12,4.91,2.21,7.2c0.16,0.34,0.33,0.68,0.5,1.01c-2.76,4.35-3.96,8.95-3.5,13.38c0.57,5.42,3.45,10.18,8.57,14.12
			c0.82,0.63,1.68,1.24,2.54,1.79c1.97,1.27,3.98,2.28,5.98,2.99c2.46,0.88,4.93,1.33,7.35,1.33c0.31,0,0.63-0.01,0.94-0.02
			c1.88-0.09,3.74-0.45,5.51-1.08c0.32-0.11,0.6-0.22,0.89-0.34c5.19-2.14,9.6-6.81,12.04-12.67c4.94,1.17,10.4,1.79,15.92,1.79
			c7.26,0,13.97-1.05,19.57-3.06c2.3,6.48,6.88,11.61,12.55,13.95c0.28,0.12,0.57,0.22,0.86,0.33c1.79,0.64,3.65,1,5.54,1.09
			c0.3,0.01,0.62,0.02,0.93,0.02c2.42,0,4.9-0.45,7.36-1.33c1.99-0.71,4-1.72,5.98-3c0.87-0.56,1.72-1.16,2.53-1.79
			c5.17-3.99,8.14-9,8.6-14.5c0.5-5.95-1.93-12-7.03-17.51c-2.64-2.85-5.45-4.81-8.54-5.95c-0.66-2.37-1.45-4.7-2.34-6.96
			c2.36-4.18,3.7-8.5,4.22-13.49c0.41-3.97,0.36-7.73-0.16-11.18c1.47-4.28,3.24-8.64,4.93-12.75l0.66-1.61
			c4.33-10.51,8.8-21.35,10.33-32.42c2.56,1,4.8,1.58,6.8,1.78c0.71,0.07,1.42,0.1,2.11,0.1c9.34,0,15.59-6.47,16.72-17.32
			c1.55-14.9-2.01-28.02-10.04-36.93C165.58,3.95,156.25,0,145.35,0L145.35,0z"/>
	</g>
	<path class="st2" d="M61.92,158.74c6.8,12.35,52.81,14.56,58.25-3.48c1.79-5.93,3.54-11.04,2.11-17.2
		c-0.76-3.29-2.08-6.32-2.96-9.56c-0.73-2.69-0.34-4.04-0.52-6.66c-0.54-7.99-5.53-17.06-9.77-22.92c-1.08-1.5-2.29-2.97-3.59-4.33
		c-7.55-0.86-22.52-1.58-30.22-1.44c-4.3,3.9-7.58,9.98-10.55,15.15C56.99,121.67,53.33,143.15,61.92,158.74z"/>
	<path class="st3" d="M71.45,135.94l-11.89-10.42c-10.02,14.35-12.03,29.91-11.19,42.76l20.4-3.41
		C66.88,147.59,71.45,135.94,71.45,135.94z"/>
	<path class="st3" d="M124.4,125.36l-11.89,10.42c0,0,4.04,10.3,2.95,25.89l20.28,3.32C136.07,152.79,133.62,138.56,124.4,125.36z"
		/>
	<path class="st4" d="M62.65,156.16c0.17,0.54,0.32,1.08,0.46,1.63c1.78,7.1-4.39,12.22-10.87,7.42
		c-5.77-4.27-9.71-9.17-12.82-15.69c-1.9-4-2.03-10.5-4.59-13.59c-0.18-0.15-0.19-0.14-0.03,0.03c0.81,0.79,2.31,1.65,3.2,2.49
		c0.1-1.59-0.01-3.18-0.31-4.67c4.5,0.29,10.62,5.06,14.28,7.69C57.02,145.08,60.78,150.23,62.65,156.16z"/>
	<g>
		<path class="st5" d="M49.09,109.7c-2.07,5.34-2.2,14.76-0.1,20c2,4.99,5.82,9.37,9.32,12.5c7.74,6.92,17.39,10.06,26.66,10.67
			c13.6,0.89,27.75,0.79,38.84-10.45c5.53-5.61,10.2-11.38,11.18-20.85c2.58-24.86-15.43-30.47-30.81-34.06
			c-14.47-3.38-36.69-5.82-47.58,10.11C54.26,101.04,50.69,105.56,49.09,109.7z"/>
	</g>
	<path class="st3" d="M32.3,47.33c3.96-19.59,30.93-26.8,48.21-29.48c3.11-0.48,6.8-0.66,10.83-0.56c4.03-0.1,7.72,0.08,10.83,0.56
		c17.29,2.68,44.25,9.9,48.21,29.48c3.16,15.63-3.9,31.9-10.33,47.54c-2.94,7.14-5.74,14.14-7.39,20.89
		c-4.64,19.04-20.3,30.91-39.6,30.68c-0.57-0.01-1.15-0.03-1.73-0.05c-0.58,0.02-1.16,0.04-1.73,0.05
		c-19.3,0.23-34.97-11.64-39.61-30.68c-1.64-6.75-4.45-13.75-7.38-20.89C36.2,79.23,29.15,62.96,32.3,47.33z"/>
	<path class="st6" d="M80.22,107.13c2.48-1.57,6.7-2.37,11.11-2.32l0,0c0.01,0,0.01,0,0.02,0c0,0,0.01,0,0.02,0l0,0
		c4.41-0.05,8.63,0.75,11.11,2.32c11.8,7.51,0.68,18.53-11.11,19.43v0c-0.01,0-0.01,0-0.01,0c-0.01,0-0.01,0-0.02,0v0
		C79.54,125.66,68.42,114.63,80.22,107.13z"/>
	<g>
		<g>
			<path class="st6" d="M91.35,139.4c0.89,0,1.62-0.73,1.62-1.62v-14.19c0-0.89-0.72-1.62-1.62-1.62c-0.9,0-1.62,0.72-1.62,1.62
				v14.19C89.73,138.67,90.46,139.4,91.35,139.4z"/>
		</g>
		<path class="st6" d="M72.24,132.25c0.76-0.46,1.76-0.21,2.22,0.56c1.3,2.18,5.83,4.5,8.13,4.95c3.33,0.65,5.9-0.19,8.64-1.68
			v-0.13c0.04,0.02,0.08,0.04,0.13,0.07c0.04-0.02,0.08-0.04,0.12-0.07v0.13c2.74,1.49,5.3,2.33,8.63,1.68
			c2.3-0.45,6.83-2.78,8.14-4.95c0.46-0.77,1.45-1.02,2.22-0.56c0.77,0.46,1.02,1.45,0.56,2.22c-2.01,3.37-7.69,5.96-10.3,6.47
			c-1.01,0.2-1.97,0.29-2.87,0.29c-2.49,0-4.59-0.69-6.51-1.59c-1.92,0.9-4.02,1.59-6.51,1.59c-0.91,0-1.86-0.09-2.87-0.29
			c-2.61-0.51-8.29-3.1-10.3-6.47C71.22,133.7,71.47,132.71,72.24,132.25z"/>
	</g>
	<g>
		<g>
			<path class="st3" d="M128.23,147.48c6.45-0.54,10.61,0.47,14.98,5.2c6.99,7.56,7.95,16.41-0.83,23.19
				c-0.72,0.55-1.42,1.05-2.12,1.5c0.79-2.95,1.37-6.12-0.04-8.94c-0.66,0.44-0.86,1.07-1.12,1.8c-0.64,1.8-1.14,3.64-1.7,5.47
				c-0.44,1.45-1.33,2.52-1.84,3.91c-0.01,0.04-0.03,0.09-0.05,0.14c-2.12,0.76-4.12,1.05-5.99,0.96c0.04-0.14,0.07-0.28,0.1-0.39
				c0.99-3.47,2.26-7.48,0.53-10.95c-0.66,0.44-0.86,1.07-1.12,1.81c-0.64,1.81-1.14,3.65-1.7,5.47c-0.38,1.24-1.08,2.2-1.59,3.32
				c-0.2-0.07-0.4-0.15-0.6-0.23C112.16,174.38,109.32,149.08,128.23,147.48z"/>
			<path class="st7" d="M137.4,175.7c0.56-1.83,1.05-3.67,1.7-5.47c0.26-0.73,0.47-1.37,1.12-1.8c1.41,2.82,0.84,5.99,0.04,8.94
				c-1.64,1.06-3.22,1.84-4.74,2.39c0.01-0.05,0.03-0.09,0.05-0.14C136.07,178.21,136.96,177.15,137.4,175.7z"/>
			<path class="st7" d="M129.03,171.17c0.26-0.73,0.47-1.37,1.12-1.81c1.74,3.47,0.46,7.48-0.53,10.95
				c-0.03,0.11-0.07,0.25-0.1,0.39c-1.34-0.06-2.6-0.32-3.78-0.74c0.51-1.12,1.21-2.08,1.59-3.32
				C127.89,174.81,128.39,172.97,129.03,171.17z"/>
		</g>
		<g>
			<path class="st3" d="M57.39,147.48c-6.45-0.54-10.61,0.47-14.98,5.2c-6.99,7.56-7.95,16.41,0.83,23.19
				c0.72,0.55,1.42,1.05,2.12,1.5c-0.8-2.95-1.37-6.12,0.04-8.94c0.65,0.44,0.86,1.07,1.12,1.8c0.64,1.8,1.14,3.64,1.7,5.47
				c0.44,1.45,1.33,2.52,1.84,3.91c0.02,0.04,0.03,0.09,0.05,0.14c2.12,0.76,4.12,1.05,5.99,0.96c-0.04-0.14-0.07-0.28-0.1-0.39
				c-0.99-3.47-2.26-7.48-0.53-10.95c0.66,0.44,0.86,1.07,1.12,1.81c0.64,1.81,1.14,3.65,1.7,5.47c0.38,1.24,1.08,2.2,1.59,3.32
				c0.2-0.07,0.4-0.15,0.6-0.23C73.46,174.38,76.3,149.08,57.39,147.48z"/>
			<path class="st7" d="M48.22,175.7c-0.56-1.83-1.05-3.67-1.7-5.47c-0.26-0.73-0.47-1.37-1.12-1.8c-1.41,2.82-0.83,5.99-0.04,8.94
				c1.63,1.06,3.22,1.84,4.74,2.39c-0.02-0.05-0.03-0.09-0.05-0.14C49.55,178.21,48.66,177.15,48.22,175.7z"/>
			<path class="st7" d="M56.59,171.17c-0.26-0.73-0.47-1.37-1.12-1.81c-1.74,3.47-0.46,7.48,0.53,10.95
				c0.03,0.11,0.07,0.25,0.1,0.39c1.33-0.06,2.6-0.32,3.78-0.74c-0.51-1.12-1.21-2.08-1.59-3.32
				C57.73,174.81,57.23,172.97,56.59,171.17z"/>
		</g>
	</g>
	<path class="st8" d="M150.51,48.44c-1.62-7.99-7.07-13.92-14.12-18.33c-13.59-7.34-19.23-11.44-28.87-11.52c0,0,0,0,0,0
		c-6.65-1.29-31.94-6.13-61.19,11.52c-7.06,4.4-12.51,10.33-14.12,18.33c-3.16,15.63,3.9,31.9,10.33,47.54
		c2.55,6.2,5,12.3,6.68,18.22c10.03-29.34,40.45-18.65,42.42-34.53c0,0,0,0,0,0l1.12-8.98c0.27-2.16-1.61-3.98-3.76-3.65l-8.69,1.45
		c-1.97,0-3.16-0.84-1.99-2.88c3.09-5.42,15.25-24.52,22.95-36.8c-2.35,9.02-4.92,21.32-5.41,22.8c-1.2,3.59,3.85,1.99,3.85,1.99
		c2.94-0.17,7.31-0.69,6.11,1.99l-8.62,24.12c-6.83,17.85,36.24,10.8,36.32,34.48c1.68-5.92,4.13-12.02,6.68-18.22
		C146.61,80.34,153.67,64.07,150.51,48.44z"/>
	<g>
		<path class="st9" d="M176.38,48.17c-0.75,7.16-4.1,12.66-12.27,11.86c-12.82-1.25-44.83-27.9-47.7-30.41
			c-3.61-3.17-7.32-6.6-3.65-11.89c4.16-6,14.97-8.26,21.67-9.89C162.9,0.91,179.23,20.78,176.38,48.17z"/>
		<path class="st9" d="M6.32,48.17c0.75,7.16,4.1,12.66,12.28,11.86c12.82-1.25,44.83-27.9,47.7-30.41
			c3.61-3.17,7.31-6.6,3.64-11.89c-4.16-6-14.97-8.26-21.67-9.89C19.8,0.91,3.47,20.78,6.32,48.17z"/>
	</g>
	<g>
		<path class="st6" d="M53.81,72.15c0,7.51,3.44,13.6,7.68,13.6c4.25,0,7.68-6.09,7.68-13.6c0-7.51-3.44-13.6-7.68-13.6
			C57.25,58.55,53.81,64.64,53.81,72.15z"/>
		<path class="st3" d="M58.75,65.64c0,2.88,1.23,5.22,2.75,5.22c1.52,0,2.75-2.33,2.75-5.22c0-2.88-1.23-5.21-2.75-5.21
			C59.98,60.43,58.75,62.76,58.75,65.64z"/>
		<path class="st6" d="M113.52,72.15c0,7.51,3.44,13.6,7.68,13.6c4.25,0,7.69-6.09,7.69-13.6c0-7.51-3.44-13.6-7.69-13.6
			C116.96,58.55,113.52,64.64,113.52,72.15z"/>
		<path class="st3" d="M118.5,66.34c0,2.88,1.23,5.22,2.75,5.22c1.52,0,2.75-2.33,2.75-5.22c0-2.88-1.23-5.21-2.75-5.21
			C119.73,61.13,118.5,63.46,118.5,66.34z"/>
	</g>
</g>
</svg>
